<mxfile host="app.diagrams.net" modified="2021-02-22T19:12:24.801Z" agent="5.0 (Windows NT 10.0; Win64; x64) AppleWebKit/537.36 (KHTML, like Gecko) Chrome/88.0.4324.182 Safari/537.36" etag="rqECylG1UGcwnDNr2P6O" version="14.4.2" type="github">
  <diagram id="1hjyakcfo1oCMvvvwyAf" name="Page-1">
    <mxGraphModel dx="1422" dy="774" grid="1" gridSize="10" guides="1" tooltips="1" connect="1" arrows="1" fold="1" page="1" pageScale="1" pageWidth="850" pageHeight="1100" math="0" shadow="0">
      <root>
        <mxCell id="0" />
        <mxCell id="1" parent="0" />
        <mxCell id="-Omb7ECsmLfycd_9WXr_-1" value="&lt;font style=&quot;font-size: 14px&quot;&gt;External View&lt;/font&gt;" style="rounded=0;whiteSpace=wrap;html=1;" vertex="1" parent="1">
          <mxGeometry x="160" y="130" width="120" height="60" as="geometry" />
        </mxCell>
        <mxCell id="-Omb7ECsmLfycd_9WXr_-2" value="&lt;font style=&quot;font-size: 14px&quot;&gt;External View&lt;/font&gt;" style="rounded=0;whiteSpace=wrap;html=1;" vertex="1" parent="1">
          <mxGeometry x="320" y="130" width="120" height="60" as="geometry" />
        </mxCell>
        <mxCell id="-Omb7ECsmLfycd_9WXr_-3" value="&lt;font style=&quot;font-size: 14px&quot;&gt;External View&lt;/font&gt;" style="rounded=0;whiteSpace=wrap;html=1;" vertex="1" parent="1">
          <mxGeometry x="490" y="130" width="120" height="60" as="geometry" />
        </mxCell>
        <mxCell id="-Omb7ECsmLfycd_9WXr_-5" value="&lt;font style=&quot;font-size: 14px&quot;&gt;Conceptual Schema&lt;/font&gt;" style="rounded=1;whiteSpace=wrap;html=1;" vertex="1" parent="1">
          <mxGeometry x="180" y="280" width="360" height="60" as="geometry" />
        </mxCell>
        <mxCell id="-Omb7ECsmLfycd_9WXr_-6" value="&lt;font style=&quot;font-size: 14px&quot;&gt;Physical Data&lt;/font&gt;" style="shape=cylinder3;whiteSpace=wrap;html=1;boundedLbl=1;backgroundOutline=1;size=15;" vertex="1" parent="1">
          <mxGeometry x="340" y="510" width="60" height="80" as="geometry" />
        </mxCell>
        <mxCell id="-Omb7ECsmLfycd_9WXr_-7" value="User" style="shape=umlActor;verticalLabelPosition=bottom;verticalAlign=top;html=1;outlineConnect=0;" vertex="1" parent="1">
          <mxGeometry x="370" y="20" width="30" height="60" as="geometry" />
        </mxCell>
        <mxCell id="-Omb7ECsmLfycd_9WXr_-8" value="User" style="shape=umlActor;verticalLabelPosition=bottom;verticalAlign=top;html=1;outlineConnect=0;" vertex="1" parent="1">
          <mxGeometry x="210" y="20" width="30" height="60" as="geometry" />
        </mxCell>
        <mxCell id="-Omb7ECsmLfycd_9WXr_-10" value="User" style="shape=umlActor;verticalLabelPosition=bottom;verticalAlign=top;html=1;outlineConnect=0;" vertex="1" parent="1">
          <mxGeometry x="535" y="20" width="30" height="60" as="geometry" />
        </mxCell>
        <mxCell id="-Omb7ECsmLfycd_9WXr_-11" value="" style="endArrow=classic;startArrow=classic;html=1;entryX=0.5;entryY=1;entryDx=0;entryDy=0;exitX=0.5;exitY=0;exitDx=0;exitDy=0;" edge="1" parent="1" source="-Omb7ECsmLfycd_9WXr_-5" target="-Omb7ECsmLfycd_9WXr_-1">
          <mxGeometry width="50" height="50" relative="1" as="geometry">
            <mxPoint x="220" y="240" as="sourcePoint" />
            <mxPoint x="270" y="190" as="targetPoint" />
          </mxGeometry>
        </mxCell>
        <mxCell id="-Omb7ECsmLfycd_9WXr_-12" value="" style="endArrow=classic;startArrow=classic;html=1;entryX=0.5;entryY=1;entryDx=0;entryDy=0;exitX=0.556;exitY=0;exitDx=0;exitDy=0;exitPerimeter=0;" edge="1" parent="1" source="-Omb7ECsmLfycd_9WXr_-5" target="-Omb7ECsmLfycd_9WXr_-2">
          <mxGeometry width="50" height="50" relative="1" as="geometry">
            <mxPoint x="390" y="280" as="sourcePoint" />
            <mxPoint x="420" y="190" as="targetPoint" />
          </mxGeometry>
        </mxCell>
        <mxCell id="-Omb7ECsmLfycd_9WXr_-13" value="" style="endArrow=classic;startArrow=classic;html=1;entryX=0.5;entryY=1;entryDx=0;entryDy=0;" edge="1" parent="1" target="-Omb7ECsmLfycd_9WXr_-3">
          <mxGeometry width="50" height="50" relative="1" as="geometry">
            <mxPoint x="400" y="279" as="sourcePoint" />
            <mxPoint x="570" y="190" as="targetPoint" />
          </mxGeometry>
        </mxCell>
        <mxCell id="-Omb7ECsmLfycd_9WXr_-16" value="&lt;font style=&quot;font-size: 14px&quot;&gt;Internal Schema&lt;/font&gt;" style="rounded=1;whiteSpace=wrap;html=1;" vertex="1" parent="1">
          <mxGeometry x="280" y="410" width="180" height="30" as="geometry" />
        </mxCell>
        <mxCell id="-Omb7ECsmLfycd_9WXr_-17" value="" style="endArrow=classic;startArrow=classic;html=1;exitX=0.5;exitY=0;exitDx=0;exitDy=0;entryX=0.525;entryY=0.997;entryDx=0;entryDy=0;entryPerimeter=0;" edge="1" parent="1" source="-Omb7ECsmLfycd_9WXr_-16" target="-Omb7ECsmLfycd_9WXr_-5">
          <mxGeometry width="50" height="50" relative="1" as="geometry">
            <mxPoint x="350" y="390" as="sourcePoint" />
            <mxPoint x="400" y="340" as="targetPoint" />
          </mxGeometry>
        </mxCell>
        <mxCell id="-Omb7ECsmLfycd_9WXr_-18" value="" style="endArrow=classic;html=1;entryX=0.5;entryY=1;entryDx=0;entryDy=0;exitX=0.5;exitY=0;exitDx=0;exitDy=0;exitPerimeter=0;" edge="1" parent="1" source="-Omb7ECsmLfycd_9WXr_-6" target="-Omb7ECsmLfycd_9WXr_-16">
          <mxGeometry width="50" height="50" relative="1" as="geometry">
            <mxPoint x="350" y="490" as="sourcePoint" />
            <mxPoint x="400" y="440" as="targetPoint" />
          </mxGeometry>
        </mxCell>
      </root>
    </mxGraphModel>
  </diagram>
</mxfile>
